<svg xmlns="http://www.w3.org/2000/svg" version="1.1" xmlns:xlink="http://www.w3.org/1999/xlink" xmlns:svgjs="http://svgjs.dev/svgjs" width="1500" height="1500" viewBox="0 0 1500 1500"><rect width="1500" height="1500" fill="#000000"></rect><g transform="matrix(0.6666666666666666,0,0,0.6666666666666666,249.39393939393938,680.1823583668343)"><svg viewBox="0 0 396 55" data-background-color="#ffffff" preserveAspectRatio="xMidYMid meet" height="208" width="1500" xmlns="http://www.w3.org/2000/svg" xmlns:xlink="http://www.w3.org/1999/xlink"><g id="tight-bounds" transform="matrix(1,0,0,1,0.2400000000000091,0.19209343623157338)"><svg viewBox="0 0 395.52 54.61581312753685" height="54.61581312753685" width="395.52"><g><svg viewBox="0 0 469.6769733810355 64.85586015494978" height="54.61581312753685" width="395.52"><g transform="matrix(1,0,0,1,74.15697338103548,8.963436533715925)"><svg viewBox="0 0 395.52000000000004 46.92898708751793" height="46.92898708751793" width="395.52000000000004"><g id="textblocktransform"><svg viewBox="0 0 395.52000000000004 46.92898708751793" height="46.92898708751793" width="395.52000000000004" id="textblock"><g><svg viewBox="0 0 395.52000000000004 46.92898708751793" height="46.92898708751793" width="395.52000000000004"><g transform="matrix(1,0,0,1,0,0)"><svg width="395.52000000000004" viewBox="2.3 -40.3 348.47999999999996 41.349999999999994" height="46.92898708751793" data-palette-color="#ed3b43"><path d="M23.65-39.75Q28.9-39.75 32.93-37.27 36.95-34.8 39.18-30.4 41.4-26 41.4-20.45L41.4-20.45Q41.4-14.75 38.02-9.93 34.65-5.1 29.65-2.27 24.65 0.55 20.1 0.55L20.1 0.55Q17.7 0.55 15.45 0.3L15.45 0.3Q11.55 0.05 9.55 0.05L9.55 0.05 2.9 0.05 2.9-1.75 7.6-5.45 7.6-35.35 2.3-37.05 3.45-39.3 9.5-39.3Q14.2-39.3 18.7-39.6L18.7-39.6Q22.1-39.8 23.65-39.8L23.65-39.8 23.65-39.75ZM21.5-3.4Q25-3.4 27.85-5.3 30.7-7.2 32.35-10.58 34-13.95 34-18.15L34-18.15Q34-23.2 32.45-27.33 30.9-31.45 27.7-33.9 24.5-36.35 19.75-36.35L19.75-36.35Q16.8-36.35 14.4-34.65L14.4-34.65 14.4-4.55Q17.45-3.35 21.5-3.35L21.5-3.35 21.5-3.4ZM88.75-2.25L87.65 0 71.75 0 71.75-1.8 76.65-5.35 72.95-14.25 56.35-14.25 52.55-5.4 61.15-2.25 60 0 44.6 0 44.6-1.8 49.45-5.55 63.35-37.7 69.25-40.25 83.75-5.15 88.75-2.25ZM71.9-16.85L64.85-33.9 57.5-16.85 71.9-16.85ZM108.4-2.3L107.3-0.05 91.6-0.05 91.6-1.85 96.3-5.55 96.3-35.35 91-37.05 92.15-39.3 107.85-39.3 107.85-37.5 103.1-33.75 103.1-4 108.4-2.3ZM146.84 0.9L143.94 0 113.59 0 113.59-1.8 118.29-5.5 118.29-35.35 112.99-37.05 114.14-39.3 129.84-39.3 129.84-37.5 125.09-33.8 125.09-2.55 137.64-2.55 145.09-13.5 146.84-12.85 146.84 0.9ZM167.54-15L167.54-3.95 172.84-2.25 171.74 0 156.09 0 156.09-1.8 160.79-5.5 160.79-14 147.84-34.8 143.94-37.05 144.94-39.3 160.49-39.3 160.49-37.5 156.04-34.05 165.84-18.25 175.94-33.8 168.14-37.05 169.24-39.3 184.64-39.3 184.64-37.5 180.39-34.8 167.54-15ZM209.39-8.75Q209.39-10.3 208.14-11.65 206.89-13 205.04-14.13 203.19-15.25 200.04-16.9L200.04-16.9Q196.29-18.85 193.96-20.3 191.64-21.75 190.01-23.73 188.39-25.7 188.39-28.1L188.39-28.1Q188.39-30.6 190.51-33.48 192.64-36.35 195.74-38.33 198.84-40.3 201.44-40.3L201.44-40.3Q204.59-40.3 208.76-39.55 212.94-38.8 214.89-37.95L214.89-37.95 214.89-28 212.44-28Q210.09-32.05 207.24-34.3 204.39-36.55 201.24-36.55L201.24-36.55Q198.54-36.55 196.99-34.88 195.44-33.2 195.44-30.55L195.44-30.55Q195.44-28.9 196.71-27.48 197.99-26.05 199.89-24.9 201.79-23.75 204.99-22.1L204.99-22.1Q208.79-20.1 211.01-18.7 213.24-17.3 214.81-15.4 216.39-13.5 216.39-11.15L216.39-11.15Q216.39-8.65 214.11-5.78 211.84-2.9 208.54-0.93 205.24 1.05 202.54 1.05L202.54 1.05Q199.24 1.05 194.69 0.3 190.14-0.45 188.14-1.3L188.14-1.3 188.14-11.25 190.59-11.25Q193.09-7.2 196.26-4.95 199.44-2.7 202.79-2.7L202.79-2.7Q204.79-2.7 206.29-3.55 207.79-4.4 208.59-5.78 209.39-7.15 209.39-8.75L209.39-8.75ZM265.34-2.3L264.24-0.05 248.54-0.05 248.54-1.85 253.24-5.55 253.24-18.35 234.04-18.35 234.04-4.05 239.34-2.3 238.24-0.05 222.54-0.05 222.54-1.85 227.24-5.55 227.24-35.35 221.94-37.05 223.09-39.3 238.79-39.3 238.79-37.5 234.04-33.75 234.04-20.85 253.24-20.85 253.24-35.35 247.94-37.05 249.09-39.3 264.79-39.3 264.79-37.5 260.04-33.75 260.04-4 265.34-2.3ZM292.78-40.3Q298.18-40.3 302.33-37.75 306.48-35.2 308.76-30.7 311.03-26.2 311.03-20.5L311.03-20.5Q311.03-14.65 307.58-9.7 304.13-4.75 299.01-1.88 293.88 1 289.23 1L289.23 1Q283.88 1 279.73-1.53 275.58-4.05 273.31-8.55 271.03-13.05 271.03-18.75L271.03-18.75Q271.03-24.6 274.48-29.58 277.93-34.55 283.03-37.43 288.13-40.3 292.78-40.3L292.78-40.3ZM289.88-35.8Q286.68-35.8 284.06-33.9 281.43-32 279.91-28.65 278.38-25.3 278.38-21.15L278.38-21.15Q278.38-16.3 279.88-12.3 281.38-8.3 284.48-5.9 287.58-3.5 292.13-3.5L292.13-3.5Q295.33-3.5 297.96-5.4 300.58-7.3 302.11-10.65 303.63-14 303.63-18.15L303.63-18.15Q303.63-23.05 302.13-27.05 300.63-31.05 297.53-33.43 294.43-35.8 289.88-35.8L289.88-35.8ZM336.43-19.2Q339.68-19.2 341.56-21.05 343.43-22.9 343.43-26.15L343.43-26.15Q343.43-30.6 341.2-33.45 338.98-36.3 334.68-36.3L334.68-36.3Q331.38-36.3 328.78-34.45L328.78-34.45 328.78-4.3 336.73-2.2 335.58 0.05 317.28 0.05 317.28-1.75 321.98-5.45 321.98-35.35 316.68-37.05 317.83-39.3 324.13-39.3Q328.88-39.3 333.48-39.6L333.48-39.6Q336.98-39.8 338.58-39.8L338.58-39.8Q342.18-39.8 344.95-38.3 347.73-36.8 349.25-34.23 350.78-31.65 350.78-28.45L350.78-28.45Q350.78-24.95 348.18-21.83 345.58-18.7 341.58-16.95 337.58-15.2 333.73-15.4L333.73-15.4 331.43-17 332.58-19.25 336.38-19.25 336.43-19.2Z" opacity="1" transform="matrix(1,0,0,1,0,0)" fill="#ffffff" class="wordmark-text-0" data-fill-palette-color="primary" id="text-0"></path></svg></g></svg></g></svg></g></svg></g><g><svg viewBox="0 0 63.078165825362596 64.85586015494978" height="64.85586015494978" width="63.078165825362596"><g><svg xmlns="http://www.w3.org/2000/svg" xmlns:xlink="http://www.w3.org/1999/xlink" version="1.1" x="0" y="0" viewBox="14.754999999999997 19.261000000000006 65.21799999999999 67.056" enable-background="new 0 0 100 100" xml:space="preserve" height="64.85586015494978" width="63.078165825362596" class="icon-icon-0" data-fill-palette-color="accent" id="icon-0"><path d="M33.281 57.936h3.257c0.004 0 0.008 0.001 0.012 0.001 0.002 0 0.005-0.001 0.007-0.001h40.916c1.381 0 2.5-1.119 2.5-2.5V27.202c0-1.381-1.119-2.5-2.5-2.5H37.696l-0.913-3.284c-0.369-1.331-1.748-2.106-3.078-1.74-1.331 0.37-2.109 1.748-1.74 3.078l0.541 1.946h-1.788l-0.51-1.859c-0.298-1.086-1.285-1.839-2.411-1.839h0l-5.387 0.001c-0.773-1.052-2.009-1.744-3.412-1.744-2.34 0-4.243 1.903-4.243 4.243s1.903 4.244 4.243 4.244c1.402 0 2.638-0.692 3.412-1.743l3.481-0.001 0.509 1.856c0 0.001 0 0.001 0 0.002l6.874 25.072c-5.707 0.004-10.349 4.648-10.349 10.356 0 4.776 3.254 8.796 7.658 9.988-1.197 1.384-1.927 3.182-1.927 5.15 0 4.35 3.539 7.889 7.889 7.889 4.346 0 7.883-3.534 7.888-7.879 0-0.003 0.001-0.007 0.001-0.01v-4.781h15.593c-1.017 1.328-1.629 2.982-1.629 4.781 0 4.35 3.539 7.889 7.889 7.889s7.889-3.539 7.889-7.889c0-0.003 0-0.007 0-0.01v-4.771h3.26c1.381 0 2.5-1.119 2.5-2.5s-1.119-2.5-2.5-2.5h-3.26v-0.492c0-1.381-1.119-2.5-2.5-2.5s-2.5 1.119-2.5 2.5v0.492H44.434v-0.492c0-1.381-1.119-2.5-2.5-2.5s-2.5 1.119-2.5 2.5v0.492h-6.152c-2.954 0-5.356-2.403-5.356-5.357C27.925 60.339 30.328 57.936 33.281 57.936zM74.973 29.702v23.233H44.242l-6.455-23.233H74.973zM32.089 29.702h3.103l6.455 23.233h-3.188L32.089 29.702zM66.287 81.319c-1.593 0-2.889-1.296-2.889-2.889s1.296-2.889 2.889-2.889 2.889 1.296 2.889 2.889S67.879 81.319 66.287 81.319zM36.544 81.319c-1.593 0-2.889-1.296-2.889-2.889s1.296-2.889 2.889-2.889 2.889 1.296 2.889 2.889S38.137 81.319 36.544 81.319z" fill="#ffffff" data-fill-palette-color="accent"></path></svg></g></svg></g></svg></g><defs></defs></svg><rect width="395.52" height="54.61581312753685" fill="none" stroke="none" visibility="hidden"></rect></g></svg></g></svg>